<?xml version="1.0" encoding="UTF-8" standalone="no"?><svg xmlns="http://www.w3.org/2000/svg" xmlns:xlink="http://www.w3.org/1999/xlink" contentScriptType="application/ecmascript" contentStyleType="text/css" height="612px" preserveAspectRatio="none" style="width:500px;height:612px;" version="1.1" viewBox="0 0 500 612" width="500px" zoomAndPan="magnify"><defs><filter height="300%" id="fke36ifmx3lmt" width="300%" x="-1" y="-1"><feGaussianBlur result="blurOut" stdDeviation="2.0"/><feColorMatrix in="blurOut" result="blurOut2" type="matrix" values="0 0 0 0 0 0 0 0 0 0 0 0 0 0 0 0 0 0 .4 0"/><feOffset dx="4.0" dy="4.0" in="blurOut2" result="blurOut3"/><feBlend in="SourceGraphic" in2="blurOut3" mode="normal"/></filter></defs><g><rect fill="#FFFFFF" filter="url(#fke36ifmx3lmt)" height="150.4688" style="stroke: #000000; stroke-width: 2.0;" width="465" x="13" y="281.0938"/><rect fill="#FFFFFF" filter="url(#fke36ifmx3lmt)" height="90.2031" style="stroke: #000000; stroke-width: 2.0;" width="392.5" x="23" y="334.3594"/><rect fill="#FFFFFF" height="43.9375" style="stroke: none; stroke-width: 1.0;" width="392.5" x="23" y="380.625"/><line style="stroke: #A80036; stroke-width: 1.0; stroke-dasharray: 5.0,5.0;" x1="65" x2="65" y1="51.2969" y2="549.9609"/><line style="stroke: #A80036; stroke-width: 1.0; stroke-dasharray: 5.0,5.0;" x1="370.5" x2="370.5" y1="51.2969" y2="549.9609"/><text fill="#000000" font-family="sans-serif" font-size="14" lengthAdjust="spacingAndGlyphs" textLength="58" x="33" y="47.9951">Initiator</text><ellipse cx="65" cy="19" fill="#FEFECE" filter="url(#fke36ifmx3lmt)" rx="12" ry="12" style="stroke: #A80036; stroke-width: 2.0;"/><line style="stroke: #A80036; stroke-width: 2.0;" x1="53" x2="77" y1="33" y2="33"/><text fill="#000000" font-family="sans-serif" font-size="14" lengthAdjust="spacingAndGlyphs" textLength="58" x="33" y="561.9561">Initiator</text><ellipse cx="65" cy="581.2578" fill="#FEFECE" filter="url(#fke36ifmx3lmt)" rx="12" ry="12" style="stroke: #A80036; stroke-width: 2.0;"/><line style="stroke: #A80036; stroke-width: 2.0;" x1="53" x2="77" y1="595.2578" y2="595.2578"/><text fill="#000000" font-family="sans-serif" font-size="14" lengthAdjust="spacingAndGlyphs" textLength="63" x="336.5" y="47.9951">Receiver</text><ellipse cx="371" cy="19" fill="#FEFECE" filter="url(#fke36ifmx3lmt)" rx="12" ry="12" style="stroke: #A80036; stroke-width: 2.0;"/><line style="stroke: #A80036; stroke-width: 2.0;" x1="359" x2="383" y1="33" y2="33"/><text fill="#000000" font-family="sans-serif" font-size="14" lengthAdjust="spacingAndGlyphs" textLength="63" x="336.5" y="561.9561">Receiver</text><ellipse cx="371" cy="581.2578" fill="#FEFECE" filter="url(#fke36ifmx3lmt)" rx="12" ry="12" style="stroke: #A80036; stroke-width: 2.0;"/><line style="stroke: #A80036; stroke-width: 2.0;" x1="359" x2="383" y1="595.2578" y2="595.2578"/><polygon fill="#A80036" points="359,78.4297,369,82.4297,359,86.4297,363,82.4297" style="stroke: #A80036; stroke-width: 1.0;"/><line style="stroke: #A80036; stroke-width: 1.0;" x1="65" x2="365" y1="82.4297" y2="82.4297"/><text fill="#000000" font-family="sans-serif" font-size="13" lengthAdjust="spacingAndGlyphs" textLength="108" x="72" y="77.3638">Open connection</text><rect fill="#EEEEEE" filter="url(#fke36ifmx3lmt)" height="3" style="stroke: #EEEEEE; stroke-width: 1.0;" width="485" x="3" y="110.9961"/><line style="stroke: #000000; stroke-width: 1.0;" x1="3" x2="488" y1="110.9961" y2="110.9961"/><line style="stroke: #000000; stroke-width: 1.0;" x1="3" x2="488" y1="113.9961" y2="113.9961"/><rect fill="#EEEEEE" filter="url(#fke36ifmx3lmt)" height="23.1328" style="stroke: #000000; stroke-width: 2.0;" width="426" x="32.5" y="100.4297"/><text fill="#000000" font-family="sans-serif" font-size="13" font-weight="bold" lengthAdjust="spacingAndGlyphs" textLength="407" x="38.5" y="116.4966">Establish that both sides support multistream-select</text><path d="M34,138.5625 L34,163.5625 L401,163.5625 L401,148.5625 L391,138.5625 L34,138.5625 " fill="#FBFB77" filter="url(#fke36ifmx3lmt)" style="stroke: #A80036; stroke-width: 1.0;"/><path d="M391,138.5625 L391,148.5625 L401,148.5625 L391,138.5625 " fill="#FBFB77" style="stroke: #A80036; stroke-width: 1.0;"/><text fill="#000000" font-family="sans-serif" font-size="13" lengthAdjust="spacingAndGlyphs" textLength="274" x="74.25" y="155.6294">Utilizing the bootstrap protocol negociation</text><polygon fill="#A80036" points="359,189.8281,369,193.8281,359,197.8281,363,193.8281" style="stroke: #A80036; stroke-width: 1.0;"/><line style="stroke: #A80036; stroke-width: 1.0;" x1="65" x2="365" y1="193.8281" y2="193.8281"/><text fill="#000000" font-family="sans-serif" font-size="13" lengthAdjust="spacingAndGlyphs" textLength="185" x="72" y="188.7622">Send multistream protocol id</text><polygon fill="#A80036" points="76,218.9609,66,222.9609,76,226.9609,72,222.9609" style="stroke: #A80036; stroke-width: 1.0;"/><line style="stroke: #A80036; stroke-width: 1.0;" x1="70" x2="370" y1="222.9609" y2="222.9609"/><text fill="#000000" font-family="sans-serif" font-size="13" lengthAdjust="spacingAndGlyphs" textLength="185" x="82" y="217.895">Send multistream protocol id</text><rect fill="#EEEEEE" filter="url(#fke36ifmx3lmt)" height="3" style="stroke: #EEEEEE; stroke-width: 1.0;" width="485" x="3" y="251.5273"/><line style="stroke: #000000; stroke-width: 1.0;" x1="3" x2="488" y1="251.5273" y2="251.5273"/><line style="stroke: #000000; stroke-width: 1.0;" x1="3" x2="488" y1="254.5273" y2="254.5273"/><rect fill="#EEEEEE" filter="url(#fke36ifmx3lmt)" height="23.1328" style="stroke: #000000; stroke-width: 2.0;" width="221" x="135" y="240.9609"/><text fill="#000000" font-family="sans-serif" font-size="13" font-weight="bold" lengthAdjust="spacingAndGlyphs" textLength="202" x="141" y="257.0278">Negotiate protocol to use</text><path d="M13,281.0938 L91,281.0938 L91,288.0938 L81,298.0938 L13,298.0938 L13,281.0938 " fill="#EEEEEE" style="stroke: #000000; stroke-width: 1.0;"/><rect fill="none" height="150.4688" style="stroke: #000000; stroke-width: 2.0;" width="465" x="13" y="281.0938"/><text fill="#000000" font-family="sans-serif" font-size="13" font-weight="bold" lengthAdjust="spacingAndGlyphs" textLength="33" x="28" y="294.1606">loop</text><text fill="#000000" font-family="sans-serif" font-size="11" font-weight="bold" lengthAdjust="spacingAndGlyphs" textLength="367" x="106" y="293.3042">[until success, or Initiator gives up and closes channel]</text><polygon fill="#A80036" points="359,315.3594,369,319.3594,359,323.3594,363,319.3594" style="stroke: #A80036; stroke-width: 1.0;"/><line style="stroke: #A80036; stroke-width: 1.0;" x1="65" x2="365" y1="319.3594" y2="319.3594"/><text fill="#000000" font-family="sans-serif" font-size="13" lengthAdjust="spacingAndGlyphs" textLength="232" x="72" y="314.2935">Send protocol id for desired protocol</text><path d="M23,334.3594 L89,334.3594 L89,341.3594 L79,351.3594 L23,351.3594 L23,334.3594 " fill="#EEEEEE" style="stroke: #000000; stroke-width: 1.0;"/><rect fill="none" height="90.2031" style="stroke: #000000; stroke-width: 2.0;" width="392.5" x="23" y="334.3594"/><text fill="#000000" font-family="sans-serif" font-size="13" font-weight="bold" lengthAdjust="spacingAndGlyphs" textLength="21" x="38" y="347.4263">alt</text><text fill="#000000" font-family="sans-serif" font-size="11" font-weight="bold" lengthAdjust="spacingAndGlyphs" textLength="236" x="104" y="346.5698">[protocol is supported by Receiver]</text><polygon fill="#A80036" points="76,368.625,66,372.625,76,376.625,72,372.625" style="stroke: #A80036; stroke-width: 1.0;"/><line style="stroke: #A80036; stroke-width: 1.0;" x1="70" x2="370" y1="372.625" y2="372.625"/><text fill="#000000" font-family="sans-serif" font-size="13" lengthAdjust="spacingAndGlyphs" textLength="282" x="82" y="367.5591">Echo back protocol id to indicate agreement</text><line style="stroke: #000000; stroke-width: 1.0; stroke-dasharray: 2.0,2.0;" x1="23" x2="415.5" y1="381.625" y2="381.625"/><text fill="#000000" font-family="sans-serif" font-size="11" font-weight="bold" lengthAdjust="spacingAndGlyphs" textLength="185" x="28" y="391.8354">[protocol is not supported]</text><polygon fill="#A80036" points="76,412.5625,66,416.5625,76,420.5625,72,416.5625" style="stroke: #A80036; stroke-width: 1.0;"/><line style="stroke: #A80036; stroke-width: 1.0;" x1="70" x2="370" y1="416.5625" y2="416.5625"/><text fill="#000000" font-family="sans-serif" font-size="13" lengthAdjust="spacingAndGlyphs" textLength="158" x="82" y="411.4966">Send "na" (not available)</text><rect fill="#EEEEEE" filter="url(#fke36ifmx3lmt)" height="3" style="stroke: #EEEEEE; stroke-width: 1.0;" width="485" x="3" y="459.1289"/><line style="stroke: #000000; stroke-width: 1.0;" x1="3" x2="488" y1="459.1289" y2="459.1289"/><line style="stroke: #000000; stroke-width: 1.0;" x1="3" x2="488" y1="462.1289" y2="462.1289"/><rect fill="#EEEEEE" filter="url(#fke36ifmx3lmt)" height="23.1328" style="stroke: #000000; stroke-width: 2.0;" width="206" x="142.5" y="448.5625"/><text fill="#000000" font-family="sans-serif" font-size="13" font-weight="bold" lengthAdjust="spacingAndGlyphs" textLength="187" x="148.5" y="464.6294">Use negotiated protocol</text><polygon fill="#A80036" points="359,498.8281,369,502.8281,359,506.8281,363,502.8281" style="stroke: #A80036; stroke-width: 1.0;"/><line style="stroke: #A80036; stroke-width: 1.0;" x1="65" x2="365" y1="502.8281" y2="502.8281"/><text fill="#000000" font-family="sans-serif" font-size="13" lengthAdjust="spacingAndGlyphs" textLength="204" x="72" y="497.7622">Send protocol-specific message</text><polygon fill="#A80036" points="76,527.9609,66,531.9609,76,535.9609,72,531.9609" style="stroke: #A80036; stroke-width: 1.0;"/><line style="stroke: #A80036; stroke-width: 1.0;" x1="70" x2="370" y1="531.9609" y2="531.9609"/><text fill="#000000" font-family="sans-serif" font-size="13" lengthAdjust="spacingAndGlyphs" textLength="177" x="82" y="526.895">Send protocol-specific reply</text><!--MD5=[c6bafcfff9fa136b14cef001100f5fb6]
@startuml
entity Initiator
entity Receiver
Initiator -> Receiver: Open connection

== Establish that both sides support multistream-select ==

note over Initiator, Receiver: Utilizing the bootstrap protocol negociation

Initiator -> Receiver: Send multistream protocol id
Receiver -> Initiator: Send multistream protocol id


== Negotiate protocol to use ==


loop until success, or Initiator gives up and closes channel
  Initiator -> Receiver: Send protocol id for desired protocol
  alt protocol is supported by Receiver
    Receiver -> Initiator: Echo back protocol id to indicate agreement
  else protocol is not supported
    Receiver -> Initiator: Send "na" (not available)
  end
end

== Use negotiated protocol ==

Initiator -> Receiver: Send protocol-specific message
Receiver -> Initiator: Send protocol-specific reply
@enduml

PlantUML version 1.2020.16beta7(Unknown compile time)
(GPL source distribution)
Java Runtime: Java(TM) SE Runtime Environment
JVM: Java HotSpot(TM) 64-Bit Server VM
Default Encoding: UTF-8
Language: en
Country: US
--></g></svg>