<svg xmlns="http://www.w3.org/2000/svg" xmlns:xlink="http://www.w3.org/1999/xlink" contentStyleType="text/css" height="381px" preserveAspectRatio="none" style="width:834px;height:381px;background:#FFFFFF;" version="1.1" viewBox="0 0 834 381" width="834px" zoomAndPan="magnify"><defs/><g><line style="stroke:#181818;stroke-width:0.5;stroke-dasharray:5.0,5.0;" x1="20" x2="20" y1="36.2969" y2="346.4922"/><line style="stroke:#181818;stroke-width:0.5;stroke-dasharray:5.0,5.0;" x1="803.4995" x2="803.4995" y1="36.2969" y2="346.4922"/><rect fill="#E2E2F0" height="30.2969" rx="2.5" ry="2.5" style="stroke:#181818;stroke-width:0.5;" width="31.5547" x="5" y="5"/><text fill="#000000" font-family="sans-serif" font-size="14" lengthAdjust="spacing" textLength="17.5547" x="12" y="24.9951">Cli</text><rect fill="#E2E2F0" height="30.2969" rx="2.5" ry="2.5" style="stroke:#181818;stroke-width:0.5;" width="31.5547" x="5" y="345.4922"/><text fill="#000000" font-family="sans-serif" font-size="14" lengthAdjust="spacing" textLength="17.5547" x="12" y="365.4873">Cli</text><rect fill="#E2E2F0" height="30.2969" rx="2.5" ry="2.5" style="stroke:#181818;stroke-width:0.5;" width="36.9277" x="785.4995" y="5"/><text fill="#000000" font-family="sans-serif" font-size="14" lengthAdjust="spacing" textLength="22.9277" x="792.4995" y="24.9951">Srv</text><rect fill="#E2E2F0" height="30.2969" rx="2.5" ry="2.5" style="stroke:#181818;stroke-width:0.5;" width="36.9277" x="785.4995" y="345.4922"/><text fill="#000000" font-family="sans-serif" font-size="14" lengthAdjust="spacing" textLength="22.9277" x="792.4995" y="365.4873">Srv</text><rect fill="#EEEEEE" height="3" style="stroke:#EEEEEE;stroke-width:1.0;" width="827.4272" x="0" y="66.8633"/><line style="stroke:#000000;stroke-width:1.0;" x1="0" x2="827.4272" y1="66.8633" y2="66.8633"/><line style="stroke:#000000;stroke-width:1.0;" x1="0" x2="827.4272" y1="69.8633" y2="69.8633"/><rect fill="#EEEEEE" height="23.1328" style="stroke:#000000;stroke-width:2.0;" width="170.5332" x="328.447" y="56.2969"/><text fill="#000000" font-family="monospace" font-size="13" font-weight="bold" lengthAdjust="spacing" textLength="156.5332" x="334.447" y="72.3638">Dial Request Success</text><polygon fill="#181818" points="791.9634,106.5625,801.9634,110.5625,791.9634,114.5625,795.9634,110.5625" style="stroke:#181818;stroke-width:1.0;"/><line style="stroke:#181818;stroke-width:1.0;" x1="20.7773" x2="797.9634" y1="110.5625" y2="110.5625"/><text fill="#000000" font-family="monospace" font-size="13" lengthAdjust="spacing" textLength="618.3062" x="103.2173" y="105.4966">[conn1: stream: dial] DialRequest:{nonce: 0xabcd, addrs: (addr1, addr2, addr3)}</text><polygon fill="#181818" points="31.7773,135.6953,21.7773,139.6953,31.7773,143.6953,27.7773,139.6953" style="stroke:#181818;stroke-width:1.0;"/><line style="stroke:#181818;stroke-width:1.0;" x1="25.7773" x2="802.9634" y1="139.6953" y2="139.6953"/><text fill="#000000" font-family="monospace" font-size="13" lengthAdjust="spacing" textLength="438.293" x="193.2239" y="134.6294">[conn2: stream: dial-back]addr2 DialBack:{nonce: 0xabcd}</text><polygon fill="#181818" points="791.9634,164.8281,801.9634,168.8281,791.9634,172.8281,795.9634,168.8281" style="stroke:#181818;stroke-width:1.0;"/><line style="stroke:#181818;stroke-width:1.0;" x1="20.7773" x2="797.9634" y1="168.8281" y2="168.8281"/><text fill="#000000" font-family="monospace" font-size="13" lengthAdjust="spacing" textLength="438.293" x="193.2239" y="163.7622">[conn2: stream: dial-back] DialBackResponse:{status: OK}</text><polygon fill="#181818" points="31.7773,193.9609,21.7773,197.9609,31.7773,201.9609,27.7773,197.9609" style="stroke:#181818;stroke-width:1.0;"/><line style="stroke:#181818;stroke-width:1.0;" x1="25.7773" x2="802.9634" y1="197.9609" y2="197.9609"/><text fill="#000000" font-family="monospace" font-size="13" lengthAdjust="spacing" textLength="680.9194" x="71.9106" y="192.895">[conn1: stream: dial] DialResponse:{status: OK, addrIdx: 1, dialStatus: DIAL_STATUS_OK}</text><rect fill="#EEEEEE" height="3" style="stroke:#EEEEEE;stroke-width:1.0;" width="827.4272" x="0" y="226.5273"/><line style="stroke:#000000;stroke-width:1.0;" x1="0" x2="827.4272" y1="226.5273" y2="226.5273"/><line style="stroke:#000000;stroke-width:1.0;" x1="0" x2="827.4272" y1="229.5273" y2="229.5273"/><rect fill="#EEEEEE" height="23.1328" style="stroke:#000000;stroke-width:2.0;" width="170.5332" x="328.447" y="215.9609"/><text fill="#000000" font-family="monospace" font-size="13" font-weight="bold" lengthAdjust="spacing" textLength="156.5332" x="334.447" y="232.0278">Dial Request Failure</text><polygon fill="#181818" points="791.9634,266.2266,801.9634,270.2266,791.9634,274.2266,795.9634,270.2266" style="stroke:#181818;stroke-width:1.0;"/><line style="stroke:#181818;stroke-width:1.0;" x1="20.7773" x2="797.9634" y1="270.2266" y2="270.2266"/><text fill="#000000" font-family="monospace" font-size="13" lengthAdjust="spacing" textLength="618.3062" x="103.2173" y="265.1606">[conn1: stream: dial] DialRequest:{nonce: 0xabcd, addrs: (addr1, addr2, addr3)}</text><polygon fill="#181818" points="31.7773,295.3594,21.7773,299.3594,31.7773,303.3594,27.7773,299.3594" style="stroke:#181818;stroke-width:1.0;"/><line style="stroke:#181818;stroke-width:1.0;" x1="25.7773" x2="802.9634" y1="299.3594" y2="299.3594"/><text fill="#000000" font-family="monospace" font-size="13" lengthAdjust="spacing" textLength="438.293" x="193.2239" y="294.2935">[conn2: stream: dial-back]addr2 DialBack:{nonce: 0xabcd}</text><polygon fill="#181818" points="31.7773,324.4922,21.7773,328.4922,31.7773,332.4922,27.7773,328.4922" style="stroke:#181818;stroke-width:1.0;"/><line style="stroke:#181818;stroke-width:1.0;" x1="25.7773" x2="802.9634" y1="328.4922" y2="328.4922"/><text fill="#000000" font-family="monospace" font-size="13" lengthAdjust="spacing" textLength="759.186" x="32.7773" y="323.4263">[conn1: stream: dial] DialResponse:{status: OK, addrIdx: 1, dialStatus: DIAL_STATUS_E_DIAL_ERROR}</text><!--SRC=[rL1DIyD04BtlhvYZWWLRRmiHecsX-558wabAcEwEPMco6xCRAPJyToT9aMhgqOEduUtE-vXNOXMCCYNQ0FUv4UK9JgiF8VpEM7x40ZozrsGLFP7tkAKuDriBYcoWwcHBqnlMUPWx6vwn82YSTRv4HLe84KKmDPX3qafvTgYLOhKe4eBDONJRUafuLSxQiGGVAi92WcREkcCUYV9W7IUHSBt7ZT9NW5fNNi95EySzdFJZvh8HBDfgiyLHU_9TUxH1jLjtfCxbZk4FYsOOyAp85pyXNphhIHvym51pkEN3cII_N3dazjSiz5u27zZkfiU_wI9-pD9Ll7f9C_Q0OSrpD7bTqR-e-QyRccKTcYN9Cca-0G00]--></g></svg>