<svg xmlns="http://www.w3.org/2000/svg" xmlns:xlink="http://www.w3.org/1999/xlink" contentScriptType="application/ecmascript" contentStyleType="text/css" height="551px" preserveAspectRatio="none" style="width:481px;height:551px;background:#FFFFFF;" version="1.1" viewBox="0 0 481 551" width="481px" zoomAndPan="magnify"><defs><filter height="300%" id="f1q0rk5kq4cohm" width="300%" x="-1" y="-1"><feGaussianBlur result="blurOut" stdDeviation="2.0"/><feColorMatrix in="blurOut" result="blurOut2" type="matrix" values="0 0 0 0 0 0 0 0 0 0 0 0 0 0 0 0 0 0 .4 0"/><feOffset dx="4.0" dy="4.0" in="blurOut2" result="blurOut3"/><feBlend in="SourceGraphic" in2="blurOut3" mode="normal"/></filter></defs><g><line style="stroke:#A80036;stroke-width:1.0;stroke-dasharray:5.0,5.0;" x1="126" x2="126" y1="40.2969" y2="508.1563"/><line style="stroke:#A80036;stroke-width:1.0;stroke-dasharray:5.0,5.0;" x1="301" x2="301" y1="40.2969" y2="508.1563"/><line style="stroke:#A80036;stroke-width:1.0;stroke-dasharray:5.0,5.0;" x1="455" x2="455" y1="40.2969" y2="508.1563"/><rect fill="#FEFECE" filter="url(#f1q0rk5kq4cohm)" height="30.2969" style="stroke:#A80036;stroke-width:1.5;" width="24" x="112" y="5"/><text fill="#000000" font-family="sans-serif" font-size="14" lengthAdjust="spacing" textLength="10" x="119" y="24.9951">A</text><rect fill="#FEFECE" filter="url(#f1q0rk5kq4cohm)" height="30.2969" style="stroke:#A80036;stroke-width:1.5;" width="24" x="112" y="507.1563"/><text fill="#000000" font-family="sans-serif" font-size="14" lengthAdjust="spacing" textLength="10" x="119" y="527.1514">A</text><rect fill="#FEFECE" filter="url(#f1q0rk5kq4cohm)" height="30.2969" style="stroke:#A80036;stroke-width:1.5;" width="24" x="287" y="5"/><text fill="#000000" font-family="sans-serif" font-size="14" lengthAdjust="spacing" textLength="10" x="294" y="24.9951">R</text><rect fill="#FEFECE" filter="url(#f1q0rk5kq4cohm)" height="30.2969" style="stroke:#A80036;stroke-width:1.5;" width="24" x="287" y="507.1563"/><text fill="#000000" font-family="sans-serif" font-size="14" lengthAdjust="spacing" textLength="10" x="294" y="527.1514">R</text><rect fill="#FEFECE" filter="url(#f1q0rk5kq4cohm)" height="30.2969" style="stroke:#A80036;stroke-width:1.5;" width="24" x="441" y="5"/><text fill="#000000" font-family="sans-serif" font-size="14" lengthAdjust="spacing" textLength="10" x="448" y="24.9951">B</text><rect fill="#FEFECE" filter="url(#f1q0rk5kq4cohm)" height="30.2969" style="stroke:#A80036;stroke-width:1.5;" width="24" x="441" y="507.1563"/><text fill="#000000" font-family="sans-serif" font-size="14" lengthAdjust="spacing" textLength="10" x="448" y="527.1514">B</text><rect fill="#EEEEEE" filter="url(#f1q0rk5kq4cohm)" height="3" style="stroke:#EEEEEE;stroke-width:1.0;" width="474" x="0" y="70.8633"/><line style="stroke:#000000;stroke-width:1.0;" x1="0" x2="474" y1="70.8633" y2="70.8633"/><line style="stroke:#000000;stroke-width:1.0;" x1="0" x2="474" y1="73.8633" y2="73.8633"/><rect fill="#EEEEEE" filter="url(#f1q0rk5kq4cohm)" height="23.1328" style="stroke:#000000;stroke-width:2.0;" width="110" x="182" y="60.2969"/><text fill="#000000" font-family="sans-serif" font-size="13" font-weight="bold" lengthAdjust="spacing" textLength="91" x="188" y="76.3638">Reservation</text><polygon fill="#A80036" points="289,110.5625,299,114.5625,289,118.5625,293,114.5625" style="stroke:#A80036;stroke-width:1.0;"/><line style="stroke:#A80036;stroke-width:1.0;" x1="126" x2="295" y1="114.5625" y2="114.5625"/><text fill="#000000" font-family="sans-serif" font-size="13" lengthAdjust="spacing" textLength="97" x="165" y="109.4966">[hop] RESERVE</text><polygon fill="#A80036" points="137,139.6953,127,143.6953,137,147.6953,133,143.6953" style="stroke:#A80036;stroke-width:1.0;"/><line style="stroke:#A80036;stroke-width:1.0;" x1="131" x2="300" y1="143.6953" y2="143.6953"/><text fill="#000000" font-family="sans-serif" font-size="13" lengthAdjust="spacing" textLength="111" x="158" y="138.6294">[hop] STATUS:OK</text><polygon fill="#FBFB77" filter="url(#f1q0rk5kq4cohm)" points="15,156.6953,237,156.6953,247,167.6953,237,179.6953,15,179.6953,5,167.6953,15,156.6953" style="stroke:#A80036;stroke-width:1.0;"/><text fill="#000000" font-family="sans-serif" font-size="13" lengthAdjust="spacing" textLength="218" x="17" y="172.7622">Reservation timeout approaching.</text><polygon fill="#FBFB77" filter="url(#f1q0rk5kq4cohm)" points="97,189.8281,155,189.8281,165,200.8281,155,212.8281,97,212.8281,87,200.8281,97,189.8281" style="stroke:#A80036;stroke-width:1.0;"/><text fill="#000000" font-family="sans-serif" font-size="13" lengthAdjust="spacing" textLength="54" x="99" y="205.895">Refresh.</text><polygon fill="#A80036" points="289,235.0938,299,239.0938,289,243.0938,293,239.0938" style="stroke:#A80036;stroke-width:1.0;"/><line style="stroke:#A80036;stroke-width:1.0;" x1="126" x2="295" y1="239.0938" y2="239.0938"/><text fill="#000000" font-family="sans-serif" font-size="13" lengthAdjust="spacing" textLength="97" x="165" y="234.0278">[hop] RESERVE</text><polygon fill="#A80036" points="137,264.2266,127,268.2266,137,272.2266,133,268.2266" style="stroke:#A80036;stroke-width:1.0;"/><line style="stroke:#A80036;stroke-width:1.0;" x1="131" x2="300" y1="268.2266" y2="268.2266"/><text fill="#000000" font-family="sans-serif" font-size="13" lengthAdjust="spacing" textLength="111" x="158" y="263.1606">[hop] STATUS:OK</text><polygon fill="#FBFB77" filter="url(#f1q0rk5kq4cohm)" points="118,281.2266,134,281.2266,144,292.2266,134,304.2266,118,304.2266,108,292.2266,118,281.2266" style="stroke:#A80036;stroke-width:1.0;"/><text fill="#000000" font-family="sans-serif" font-size="13" lengthAdjust="spacing" textLength="12" x="120" y="297.2935">...</text><rect fill="#EEEEEE" filter="url(#f1q0rk5kq4cohm)" height="3" style="stroke:#EEEEEE;stroke-width:1.0;" width="474" x="0" y="329.9258"/><line style="stroke:#000000;stroke-width:1.0;" x1="0" x2="474" y1="329.9258" y2="329.9258"/><line style="stroke:#000000;stroke-width:1.0;" x1="0" x2="474" y1="332.9258" y2="332.9258"/><rect fill="#EEEEEE" filter="url(#f1q0rk5kq4cohm)" height="23.1328" style="stroke:#000000;stroke-width:2.0;" width="182" x="146" y="319.3594"/><text fill="#000000" font-family="sans-serif" font-size="13" font-weight="bold" lengthAdjust="spacing" textLength="163" x="152" y="335.4263">Circuit Establishment</text><polygon fill="#A80036" points="312,369.625,302,373.625,312,377.625,308,373.625" style="stroke:#A80036;stroke-width:1.0;"/><line style="stroke:#A80036;stroke-width:1.0;" x1="306" x2="454" y1="373.625" y2="373.625"/><text fill="#000000" font-family="sans-serif" font-size="13" lengthAdjust="spacing" textLength="130" x="313" y="368.5591">[hop] CONNECT to A</text><polygon fill="#A80036" points="137,398.7578,127,402.7578,137,406.7578,133,402.7578" style="stroke:#A80036;stroke-width:1.0;"/><line style="stroke:#A80036;stroke-width:1.0;" x1="131" x2="300" y1="402.7578" y2="402.7578"/><text fill="#000000" font-family="sans-serif" font-size="13" lengthAdjust="spacing" textLength="151" x="138" y="397.6919">[stop] CONNECT from B</text><polygon fill="#A80036" points="289,427.8906,299,431.8906,289,435.8906,293,431.8906" style="stroke:#A80036;stroke-width:1.0;"/><line style="stroke:#A80036;stroke-width:1.0;" x1="126" x2="295" y1="431.8906" y2="431.8906"/><text fill="#000000" font-family="sans-serif" font-size="13" lengthAdjust="spacing" textLength="115" x="156" y="426.8247">[stop] STATUS:OK</text><polygon fill="#A80036" points="443,457.0234,453,461.0234,443,465.0234,447,461.0234" style="stroke:#A80036;stroke-width:1.0;"/><line style="stroke:#A80036;stroke-width:1.0;" x1="301" x2="449" y1="461.0234" y2="461.0234"/><text fill="#000000" font-family="sans-serif" font-size="13" lengthAdjust="spacing" textLength="111" x="322.5" y="455.9575">[hop] STATUS:OK</text><polygon fill="#A80036" points="137,486.1563,127,490.1563,137,494.1563,133,490.1563" style="stroke:#A80036;stroke-width:1.0;"/><polygon fill="#A80036" points="443,486.1563,453,490.1563,443,494.1563,447,490.1563" style="stroke:#A80036;stroke-width:1.0;"/><line style="stroke:#A80036;stroke-width:1.0;" x1="131" x2="449" y1="490.1563" y2="490.1563"/><text fill="#000000" font-family="sans-serif" font-size="13" lengthAdjust="spacing" textLength="72" x="254.5" y="485.0903">Connection</text><!--MD5=[e031e1b2b9b8ce9357e3e1030baa7bb6]
@startuml
participant A
participant R
participant B

skinparam sequenceMessageAlign center

== Reservation ==

A -> R: [hop] RESERVE
R -> A: [hop] STATUS:OK

hnote over A: Reservation timeout approaching.
hnote over A: Refresh.

A -> R: [hop] RESERVE
R -> A: [hop] STATUS:OK

hnote over A: ...

== Circuit Establishment ==

B -> R: [hop] CONNECT to A
R -> A: [stop] CONNECT from B
A -> R: [stop] STATUS:OK
R -> B: [hop] STATUS:OK

B <-> A: Connection
@enduml

PlantUML version 1.2021.6beta6(Unknown compile time)
(GPL source distribution)
Java Runtime: Java(TM) SE Runtime Environment
JVM: Java HotSpot(TM) 64-Bit Server VM
Default Encoding: UTF-8
Language: en
Country: US
--></g></svg>
